<?xml version="1.0" encoding="UTF-8"?>
<svg version="1.1" viewBox="0 0 500 500" xmlns="http://www.w3.org/2000/svg">
 <g transform="matrix(1.638 0 0 1.638 -14.93 -26.05)" fill-rule="evenodd" stroke-width="1.084">
  <path d="m257.5 107.7h-62.31l22.29-17.88-12.77-16.98-19.95 14.64 9.175-29.63-19.95-6.169-10.38 31.43-10.35-31.43-19.99 6.169 9.174 29.63-20.69-14.91-12.77 16.98 23.03 18.15h-60.01v182.9h185.5v-182.9z"/>
  <g fill="#FB8">
   <path d="m240.1 129.4h-66.02v29.01h66.02v-29.01z"/>
   <path d="m152.2 129.4h-60.63v29.01h60.63v-29.01z"/>
   <path d="m240.1 179.8h-66.02v89.41h66.02v-89.41z"/>
   <path d="m152.2 179.8h-60.63v89.41h60.63v-89.41z"/>
  </g>
 </g>
</svg>
