<svg width="20.98mm" height="18mm" version="1.1" viewBox="0 0 20.98 18" xmlns="http://www.w3.org/2000/svg">
<ellipse cx="10.64" cy="4.959" rx="1.664" ry="1.643" fill-opacity=".9853" stroke-width=".999"/>
<path class="UnoptimicedTransforms" transform="matrix(1.713 0 0 1.713 -7.382 .08839)" d="m9.777 3.951c-0.2838-0.07088-0.5598-0.04619-0.6816 0.2852l-0.6074 1.928-0.373-1.035 0.1504-0.5781c-0.5512 0.6313-1.322 0.4093-1.711 0.793l1.229-0.01562 0.6211 1.76 0.8535-1.68-0.1484 3.264 1.396-0.1914 1.396 0.1914-0.1484-3.264 0.8535 1.68 0.6211-1.76 1.229 0.01562c-0.3885-0.3837-1.16-0.1617-1.711-0.793l0.1504 0.5781-0.373 1.035-0.6074-1.928c-0.2437-0.6627-1.104-0.09524-1.41-0.001953-0.1532-0.04664-0.4448-0.2123-0.7285-0.2832z" fill-opacity=".9853"/>
</svg>
