<svg width="20.98mm" height="18mm" version="1.1" viewBox="0 0 20.98 18" xmlns="http://www.w3.org/2000/svg">
<g transform="translate(-22.63 -20.84)" fill-opacity=".9853">
<g>
<ellipse cx="25.95" cy="24.37" rx="1.666" ry="1.645"/>
<path d="m26.21 26.12c-0.9445 0.02935-1.688 0.3129-1.682 1.02 0.0094 1.2-0.6131 5.638 0.1249 6.621 0.6255 0.8335 2.379 0.6755 2.899 0.6098 0.03165 0.0086 0.06436 0.01458 0.09883 0.01458h1.666v2.54c0 0.2538 0.1488 0.4582 0.3334 0.4582h1.249c0.1845 0 0.3334-0.2044 0.3334-0.4582v-4.081c0-0.2076-0.1672-0.3748-0.3748-0.3748h-3.156c0.01777-0.8546 0.04491-1.887 0.04281-2.862l2.096 0.6786c0.1253 0.04057 0.2764-0.08329 0.3393-0.2774l0.1835-0.567c0.06285-0.1941 0.01278-0.383-0.1125-0.4235l-2.539-0.8221c-0.03974-0.7396-0.1192-1.342-0.2692-1.639-0.1618-0.3206-0.6662-0.4548-1.233-0.4372z"/>
<path d="m40.8 26.12c0.9445 0.02936 1.812 0.4794 1.807 1.186-0.0094 1.2 0.4881 5.471-0.2498 6.454-0.6255 0.8335-2.379 0.6755-2.899 0.6098-0.03166 0.0086-0.06437 0.01458-0.09883 0.01458h-1.666v2.54c0 0.2538-0.1488 0.4582-0.3334 0.4582h-1.249c-0.1845 0-0.3334-0.2044-0.3334-0.4582v-4.081c0-0.2076 0.1672-0.3748 0.3748-0.3748h3.156c-0.01776-0.8546-0.04491-1.887-0.04282-2.862l-2.096 0.6786c-0.1253 0.04057-0.2764-0.08329-0.3393-0.2774l-0.1835-0.567c-0.06286-0.1941-0.01278-0.383 0.1125-0.4235l2.539-0.8221c0.03974-0.7396 0.1192-1.342 0.2692-1.639 0.1618-0.3206 0.6662-0.4548 1.233-0.4372z"/>
<ellipse cx="41.05" cy="24.37" rx="1.666" ry="1.645"/>
</g>
<ellipse cx="33.17" cy="23.21" rx="1.666" ry="1.645" fill="#909090"/>
<path d="m33.14 24.98c-0.8121 0-1.479 0.6306-1.602 1.459h-0.02187v3.466h3.581v-3.466h-0.02232c-0.1225-0.8287-0.7896-1.459-1.602-1.459z" fill="#909090"/>
<path d="m29.17 30.39c-0.3345 0-0.6039 0.2694-0.6039 0.6039 0 0.3345 0.2694 0.6034 0.6039 0.6034h2.731c-0.02857 0.1133-0.04555 0.2314-0.04555 0.3539v4.04c0 0.7957 0.6407 1.436 1.436 1.436h0.2505c0.7957 0 1.436-0.6403 1.436-1.436v-4.04c0-0.1224-0.01653-0.2405-0.04509-0.3539h2.606c0.3345 0 0.6039-0.269 0.6039-0.6034 0-0.3345-0.2694-0.6039-0.6039-0.6039z"/>
</g>
</svg>
